<svg xmlns="http://www.w3.org/2000/svg" width="42" height="14" viewBox="0 0 42 14">
    <g fill="none" fill-rule="evenodd">
        <path fill="#F15A29" d="M8.213 11.269l-.702.74a.478.478 0 0 1-.656 0l-.815-.74-3.055-2.825-.974-.897a.513.513 0 0 1 0-.695.479.479 0 0 1 .672-.007l.007.007.34.314 4.12 3.789 7.898-8.25.702-.74a.479.479 0 0 1 .672-.007l.007.006a.511.511 0 0 1 0 .695l-8.216 8.61zm9.076-8.565a1.337 1.337 0 0 0-.385-1.322A1.248 1.248 0 0 0 16.09 1a1.248 1.248 0 0 0-.905.382L13.94 2.704l-6.79 7.13L3.188 6.18l-.203-.134a1.234 1.234 0 0 0-.657-.18 1.25 1.25 0 0 0-.95.427 1.336 1.336 0 0 0 0 1.86l1.493 1.39 1.856 1.727 1.471 1.367a1.253 1.253 0 0 0 1.761.005l1.25-1.305h30.075A1.621 1.621 0 0 0 40.868 9.7V4.341a1.62 1.62 0 0 0-1.584-1.637H17.29z"/>
        <path fill="#FFF" d="M16.43 1.964a.479.479 0 0 0-.673-.007l-.007.007-.701.74-7.9 8.25L2.984 7.1l-.34-.292a.478.478 0 0 0-.672-.007l-.006.007a.512.512 0 0 0 0 .695l.973.897 3.101 2.87.815.762a.479.479 0 0 0 .656 0l.702-.74 8.17-8.587a.512.512 0 0 0 .057-.727l-.01-.013M23.425 3.763v3.32c0 .527-.169.945-.507 1.253-.337.308-.787.462-1.349.462-.568 0-1.02-.152-1.354-.455-.335-.304-.502-.725-.502-1.264V3.763h.86v3.323c0 .332.084.585.252.76.169.175.417.263.744.263.664 0 .996-.35.996-1.05V3.762h.86zm2.132 3.78l.75-2.504h.884l-1.467 4.25c-.225.621-.607.932-1.146.932-.12 0-.254-.02-.4-.062v-.641l.158.01c.21 0 .367-.038.472-.114.106-.076.19-.204.251-.384l.12-.317-1.297-3.674h.894l.781 2.504zm4.889-3.402v.898h.651v.614h-.651v2.06c0 .141.028.243.083.306.056.062.156.093.299.093.095 0 .192-.011.29-.034v.642c-.189.052-.37.078-.546.078-.637 0-.955-.351-.955-1.054V5.653h-.607v-.614h.607V4.14h.829zm2.176 4.589h-.829V5.039h.83v3.69zm-.157-5.216h.945l-.945 1.033H31.8l.665-1.033zm1.87 1.525l.024.426c.273-.33.631-.495 1.074-.495.77 0 1.16.44 1.174 1.32v2.44h-.829V6.338c0-.234-.05-.407-.152-.52-.101-.112-.266-.169-.496-.169-.334 0-.583.152-.747.454V8.73h-.83V5.039h.782z"/>
    </g>
</svg>
